<svg id="Layer_1" data-name="Layer 1" xmlns="http://www.w3.org/2000/svg" viewBox="0 0 155.57 43.91"><defs><style>.cls-1{isolation:isolate;}</style></defs><title>logo</title><g class="cls-1"><g class="cls-1"><path d="M1.21,18.09l2.35-15L9,15.08l5.58-12,2.21,15H15.17L13.84,8.21,9,18.68,4.22,8.21,2.83,18.09Z" transform="translate(-1.21 -0.01)"/><path d="M26.39,3.65a7,7,0,0,1,3.63,1,7.45,7.45,0,0,1,2.75,2.71,7.24,7.24,0,0,1,0,7.35,7.31,7.31,0,0,1-2.62,2.62,7.38,7.38,0,0,1-3.83,1,7.47,7.47,0,0,1-6.42-3.8A7.38,7.38,0,0,1,19,10.91a7,7,0,0,1,2.34-5.23A7.31,7.31,0,0,1,24,4.05,7.44,7.44,0,0,1,26.39,3.65Zm0,1.49a5.52,5.52,0,0,0-4.38,2,5.59,5.59,0,0,0-1.42,3.76,5.69,5.69,0,0,0,1.81,4.33,6.09,6.09,0,0,0,2.13,1.3,5.5,5.5,0,0,0,1.8.31,5.71,5.71,0,0,0,3-.84,5.58,5.58,0,0,0,2.11-2.17A5.82,5.82,0,0,0,32.17,11,5.73,5.73,0,0,0,30.4,6.77a5.54,5.54,0,0,0-2.13-1.31A5.81,5.81,0,0,0,26.38,5.14Z" transform="translate(-1.21 -0.01)"/><path d="M43.73,5.37H38V9.58h5.61v1.48H38v5.56h5.76v1.48H36.37V3.89h7.36ZM38,0a1.05,1.05,0,0,1,.77.32,1,1,0,0,1,.32.76,1,1,0,0,1-.32.77,1.07,1.07,0,0,1-1.53,0,1.06,1.06,0,0,1-.32-.78,1,1,0,0,1,.32-.75A1,1,0,0,1,38,0Zm4,0a1,1,0,0,1,.77.32,1,1,0,0,1,.32.76,1,1,0,0,1-.32.77,1.07,1.07,0,0,1-1.53,0A1.06,1.06,0,0,1,41,1.08a1,1,0,0,1,.32-.75A1,1,0,0,1,42.07,0Z" transform="translate(-1.21 -0.01)"/><path d="M49.82,5.37V18.09H48.23V5.37H44.8V3.89h8.48V5.37Z" transform="translate(-1.21 -0.01)"/><path d="M62,9.66H69.3V3.89h1.59v14.2H69.3V11.14H62v6.95H60.44V3.89H62Z" transform="translate(-1.21 -0.01)"/><path d="M81.65,5.37H75.88V9.58h5.61v1.48H75.88v5.56h5.76v1.48H74.29V3.89h7.36Z" transform="translate(-1.21 -0.01)"/><path d="M84.28,18.09V3.3L95.35,14.88v-11h1.59V18.73L85.87,7.14V18.09Z" transform="translate(-1.21 -0.01)"/><path d="M100.34,18.09V3.3l11.07,11.59v-11H113V18.73L101.93,7.14V18.09Z" transform="translate(-1.21 -0.01)"/><path d="M123.76,5.37H118V9.58h5.61v1.48H118v5.56h5.76v1.48H116.4V3.89h7.36Z" transform="translate(-1.21 -0.01)"/><path d="M134,5.86l-1.25.82a4.45,4.45,0,0,0-.74-.94,2.43,2.43,0,0,0-1.7-.61,2.27,2.27,0,0,0-1.75.71,2.11,2.11,0,0,0-.6,1.49,1.8,1.8,0,0,0,.88,1.53,7.46,7.46,0,0,0,1.11.6l1.35.59a6.5,6.5,0,0,1,2.44,1.63A3.51,3.51,0,0,1,134.5,14,4.17,4.17,0,0,1,133,17.26a4.46,4.46,0,0,1-3,1.09,4.17,4.17,0,0,1-3.53-1.72,5.19,5.19,0,0,1-.85-2l1.54-.43a3.92,3.92,0,0,0,.57,1.47,2.63,2.63,0,0,0,1,.82,2.94,2.94,0,0,0,1.35.32,2.74,2.74,0,0,0,2.06-.86,2.67,2.67,0,0,0,.79-1.93,2.28,2.28,0,0,0-1.18-2,25.47,25.47,0,0,0-2.52-1.23A5.94,5.94,0,0,1,127,9.3a3.11,3.11,0,0,1-.67-2,3.34,3.34,0,0,1,1.41-2.84,4.23,4.23,0,0,1,2.56-.82A4,4,0,0,1,134,5.86Z" transform="translate(-1.21 -0.01)"/><path d="M144.71,5.86l-1.25.82a4.45,4.45,0,0,0-.74-.94,2.43,2.43,0,0,0-1.7-.61,2.27,2.27,0,0,0-1.75.71,2.11,2.11,0,0,0-.6,1.49,1.8,1.8,0,0,0,.88,1.53,7.46,7.46,0,0,0,1.11.6l1.35.59a6.5,6.5,0,0,1,2.44,1.63,3.51,3.51,0,0,1,.78,2.29,4.17,4.17,0,0,1-1.49,3.28,4.46,4.46,0,0,1-3,1.09,4.17,4.17,0,0,1-3.53-1.72,5.19,5.19,0,0,1-.85-2l1.54-.43a3.92,3.92,0,0,0,.57,1.47,2.63,2.63,0,0,0,1,.82,2.94,2.94,0,0,0,1.35.32,2.74,2.74,0,0,0,2.06-.86,2.67,2.67,0,0,0,.79-1.93,2.28,2.28,0,0,0-1.18-2,25.47,25.47,0,0,0-2.52-1.23,5.94,5.94,0,0,1-2.21-1.52,3.11,3.11,0,0,1-.67-2,3.34,3.34,0,0,1,1.41-2.84A4.23,4.23,0,0,1,141,3.65,4,4,0,0,1,144.71,5.86Z" transform="translate(-1.21 -0.01)"/><path d="M150.46,12l-4.65-8.09h1.83l3.62,6.34,3.67-6.34h1.84L152.06,12v6.11h-1.59Z" transform="translate(-1.21 -0.01)"/></g><g class="cls-1"><path d="M37.21,30.62v2a7.08,7.08,0,0,0-1.69-1.25,5.82,5.82,0,0,0-2.61-.63,5.44,5.44,0,0,0-2.86.81,5.79,5.79,0,0,0-2.23,2.39,5.91,5.91,0,0,0-.65,2.71,5.45,5.45,0,0,0,2,4.33,5.62,5.62,0,0,0,3.79,1.48,5.81,5.81,0,0,0,3-.87,7.66,7.66,0,0,0,1.26-1v2a7.44,7.44,0,0,1-4.28,1.38,7.18,7.18,0,0,1-3.4-.85A7.32,7.32,0,0,1,26.41,40a7.09,7.09,0,0,1-.83-3.35,7.46,7.46,0,0,1,3.72-6.41,7.31,7.31,0,0,1,3.71-1,6.88,6.88,0,0,1,2.9.62A9.65,9.65,0,0,1,37.21,30.62Z" transform="translate(-1.21 -0.01)"/><path d="M46.22,29.22a7,7,0,0,1,3.63,1A7.46,7.46,0,0,1,52.6,32.9a7.24,7.24,0,0,1,0,7.35,7.43,7.43,0,0,1-12.87-.13,7.38,7.38,0,0,1-.91-3.64,7,7,0,0,1,2.34-5.23,7.3,7.3,0,0,1,2.68-1.62A7.44,7.44,0,0,1,46.22,29.22Zm0,1.49a5.52,5.52,0,0,0-4.38,2,5.59,5.59,0,0,0-1.42,3.76,5.69,5.69,0,0,0,1.81,4.33,6.11,6.11,0,0,0,2.13,1.3,5.52,5.52,0,0,0,1.8.31,5.7,5.7,0,0,0,3-.84,5.58,5.58,0,0,0,2.11-2.17A5.82,5.82,0,0,0,52,36.57a5.73,5.73,0,0,0-1.77-4.23A5.54,5.54,0,0,0,48.09,31,5.81,5.81,0,0,0,46.21,30.7Z" transform="translate(-1.21 -0.01)"/><path d="M59.9,37.3l4.52,6.36H62.48L58.2,37.42h-.41v6.23H56.2V29.46h2.3a8.07,8.07,0,0,1,2.35.27,3.53,3.53,0,0,1,2,1.57,4.06,4.06,0,0,1,.57,2.14,3.59,3.59,0,0,1-1.54,3.15A4.07,4.07,0,0,1,59.9,37.3ZM57.79,36h1A3.63,3.63,0,0,0,61,35.46a2.39,2.39,0,0,0,.93-2,2.25,2.25,0,0,0-1-2,4.11,4.11,0,0,0-2.14-.46h-.95Z" transform="translate(-1.21 -0.01)"/><path d="M68.2,37.44v6.22H66.61V29.46h2.58a6.8,6.8,0,0,1,2.59.39,3.64,3.64,0,0,1,1.9,1.82,4.27,4.27,0,0,1-.17,3.91q-1.08,1.86-3.93,1.86Zm0-1.45h1.29a3.28,3.28,0,0,0,2.27-.7,2.41,2.41,0,0,0,.76-1.86,2.3,2.3,0,0,0-.78-1.86,3.64,3.64,0,0,0-2.36-.63H68.2Z" transform="translate(-1.21 -0.01)"/><path d="M82.66,29.22a7,7,0,0,1,3.63,1A7.46,7.46,0,0,1,89,32.9a7.24,7.24,0,0,1,0,7.35,7.43,7.43,0,0,1-12.87-.13,7.38,7.38,0,0,1-.91-3.64,7,7,0,0,1,2.34-5.23,7.3,7.3,0,0,1,2.68-1.62A7.44,7.44,0,0,1,82.66,29.22Zm0,1.49a5.52,5.52,0,0,0-4.38,2,5.59,5.59,0,0,0-1.42,3.76,5.69,5.69,0,0,0,1.81,4.33,6.11,6.11,0,0,0,2.13,1.3,5.52,5.52,0,0,0,1.8.31,5.7,5.7,0,0,0,3-.84,5.59,5.59,0,0,0,2.11-2.17,5.82,5.82,0,0,0,.72-2.84,5.73,5.73,0,0,0-1.77-4.23A5.55,5.55,0,0,0,84.54,31,5.81,5.81,0,0,0,82.65,30.7Z" transform="translate(-1.21 -0.01)"/><path d="M96.35,37.3l4.51,6.36H98.93l-4.29-6.23h-.41v6.23H92.64V29.46h2.3a8.06,8.06,0,0,1,2.35.27,3.53,3.53,0,0,1,2,1.57,4.06,4.06,0,0,1,.57,2.14,3.59,3.59,0,0,1-1.54,3.15A4.07,4.07,0,0,1,96.35,37.3ZM94.23,36h1a3.63,3.63,0,0,0,2.21-.57,2.39,2.39,0,0,0,.93-2,2.25,2.25,0,0,0-1-2,4.11,4.11,0,0,0-2.14-.46h-.95Z" transform="translate(-1.21 -0.01)"/><path d="M110.86,39.64h-6.07l-1.72,4h-1.73l6.54-14.88,6.38,14.88h-1.74Zm-.62-1.48-2.37-5.69-2.42,5.69Z" transform="translate(-1.21 -0.01)"/><path d="M118.51,30.93V43.66h-1.59V30.93h-3.43V29.46H122v1.48Z" transform="translate(-1.21 -0.01)"/><path d="M131.17,30.93H125.4v4.21H131v1.48H125.4v5.56h5.76v1.48h-7.36V29.46h7.36Z" transform="translate(-1.21 -0.01)"/></g></g></svg>