<svg xmlns="http://www.w3.org/2000/svg" viewBox="0 0 44.08 8.77"><defs><style>.cls-1{fill:#fff;}</style></defs><title>dots-white-large</title><g id="Layer_2" data-name="Layer 2"><g id="Layer_1-2" data-name="Layer 1"><path class="cls-1" d="M1.28,1.28A4.23,4.23,0,0,1,4.39,0a4.23,4.23,0,0,1,3.1,1.28,4.23,4.23,0,0,1,1.28,3.1,4.23,4.23,0,0,1-1.28,3.1,4.23,4.23,0,0,1-3.1,1.28,4.23,4.23,0,0,1-3.1-1.28A4.23,4.23,0,0,1,0,4.39,4.23,4.23,0,0,1,1.28,1.28Z"/><path class="cls-1" d="M36.59,1.28a4.39,4.39,0,0,1,6.21,0,4.23,4.23,0,0,1,1.28,3.1,4.23,4.23,0,0,1-1.28,3.1,4.39,4.39,0,0,1-6.21,0,4.23,4.23,0,0,1-1.28-3.1A4.23,4.23,0,0,1,36.59,1.28Z"/></g></g></svg>