<svg xmlns="http://www.w3.org/2000/svg" viewBox="0 0 17.3 3.44"><title>dots-black-small</title><g id="Layer_2" data-name="Layer 2"><g id="Layer_1-2" data-name="Layer 1"><path d="M.5.5A1.66,1.66,0,0,1,1.72,0,1.66,1.66,0,0,1,2.94.5a1.66,1.66,0,0,1,.5,1.22,1.66,1.66,0,0,1-.5,1.22,1.66,1.66,0,0,1-1.22.5A1.66,1.66,0,0,1,.5,2.94,1.66,1.66,0,0,1,0,1.72,1.66,1.66,0,0,1,.5.5Z"/><path d="M14.36.5A1.72,1.72,0,0,1,16.8.5a1.66,1.66,0,0,1,.5,1.22,1.66,1.66,0,0,1-.5,1.22,1.72,1.72,0,0,1-2.44,0,1.66,1.66,0,0,1-.5-1.22A1.66,1.66,0,0,1,14.36.5Z"/></g></g></svg>