<svg xmlns="http://www.w3.org/2000/svg" viewBox="0 0 30.9 6.15"><defs><style>.cls-1{fill:#fff;}</style></defs><title>dots-white-medium</title><g id="Layer_2" data-name="Layer 2"><g id="Layer_1-2" data-name="Layer 1"><path class="cls-1" d="M.9.9A3,3,0,0,1,3.08,0,3,3,0,0,1,5.25.9a3,3,0,0,1,.9,2.17,3,3,0,0,1-.9,2.18,3,3,0,0,1-2.17.9A3,3,0,0,1,.9,5.25,3,3,0,0,1,0,3.07,3,3,0,0,1,.9.9Z"/><path class="cls-1" d="M25.65.9A3.08,3.08,0,0,1,30,.9a3,3,0,0,1,.9,2.17A3,3,0,0,1,30,5.25a3.08,3.08,0,0,1-4.35,0,3,3,0,0,1-.9-2.18A3,3,0,0,1,25.65.9Z"/></g></g></svg>